<svg xmlns="http://www.w3.org/2000/svg" viewBox="0 0 900 200">
  <defs>
    <linearGradient id="bg" x1="0%" y1="0%" x2="100%" y2="100%">
      <stop offset="0%" style="stop-color:#0B1426"/>
      <stop offset="100%" style="stop-color:#162840"/>
    </linearGradient>
    <linearGradient id="accent" x1="0%" y1="0%" x2="100%" y2="0%">
      <stop offset="0%" style="stop-color:#00D4FF"/>
      <stop offset="50%" style="stop-color:#4DA8DA"/>
      <stop offset="100%" style="stop-color:#06D6A0"/>
    </linearGradient>
  </defs>
  <rect width="900" height="200" fill="url(#bg)" rx="12"/>
  <g opacity="0.06" stroke="#4DA8DA" stroke-width="0.5">
    <line x1="0" y1="40" x2="900" y2="40"/><line x1="0" y1="80" x2="900" y2="80"/>
    <line x1="0" y1="120" x2="900" y2="120"/><line x1="0" y1="160" x2="900" y2="160"/>
    <line x1="100" y1="0" x2="100" y2="200"/><line x1="200" y1="0" x2="200" y2="200"/>
    <line x1="300" y1="0" x2="300" y2="200"/><line x1="400" y1="0" x2="400" y2="200"/>
    <line x1="500" y1="0" x2="500" y2="200"/><line x1="600" y1="0" x2="600" y2="200"/>
    <line x1="700" y1="0" x2="700" y2="200"/><line x1="800" y1="0" x2="800" y2="200"/>
  </g>
  <g transform="translate(120,75)" opacity="0.15">
    <polygon points="0,-20 12,10 -12,10" fill="#00D4FF"/>
    <circle cx="0" cy="-5" r="25" fill="none" stroke="#00D4FF" stroke-width="1" stroke-dasharray="4,4"/>
  </g>
  <g transform="translate(780,125)" opacity="0.12">
    <polygon points="0,-18 10,9 -10,9" fill="#06D6A0"/>
    <circle cx="0" cy="-4" r="22" fill="none" stroke="#06D6A0" stroke-width="1" stroke-dasharray="4,4"/>
  </g>
  <text x="450" y="75" text-anchor="middle" font-family="system-ui,sans-serif" font-size="48" font-weight="800" fill="url(#accent)">SwarmMind</text>
  <text x="450" y="110" text-anchor="middle" font-family="system-ui,sans-serif" font-size="16" fill="rgba(255,255,255,0.7)" letter-spacing="3">AUTONOMOUS DRONE SWARM INTELLIGENCE</text>
  <text x="450" y="150" text-anchor="middle" font-family="system-ui,sans-serif" font-size="13" fill="rgba(255,255,255,0.45)">AI-Coordinated Search &amp; Rescue | MCP Protocol | Google ADK + Gemini</text>
  <rect x="300" y="120" width="300" height="1.5" fill="url(#accent)" opacity="0.4" rx="1"/>
</svg>
