<svg xmlns="http://www.w3.org/2000/svg" width="1200" height="400" viewBox="0 0 1200 400">
  <defs>
    <!-- Background gradient -->
    <linearGradient id="bgGrad" x1="0" y1="0" x2="0" y2="1">
      <stop offset="0%" stop-color="#0B1426"/>
      <stop offset="100%" stop-color="#111B2E"/>
    </linearGradient>
    <!-- Cyan glow filter for title -->
    <filter id="cyanGlow" x="-20%" y="-20%" width="140%" height="140%">
      <feGaussianBlur in="SourceGraphic" stdDeviation="6" result="blur"/>
      <feFlood flood-color="#00D4FF" flood-opacity="0.7" result="color"/>
      <feComposite in="color" in2="blur" operator="in" result="glow"/>
      <feMerge>
        <feMergeNode in="glow"/>
        <feMergeNode in="glow"/>
        <feMergeNode in="SourceGraphic"/>
      </feMerge>
    </filter>
    <!-- Subtle glow for accent elements -->
    <filter id="softGlow" x="-50%" y="-50%" width="200%" height="200%">
      <feGaussianBlur in="SourceGraphic" stdDeviation="3" result="blur"/>
      <feMerge>
        <feMergeNode in="blur"/>
        <feMergeNode in="SourceGraphic"/>
      </feMerge>
    </filter>
    <!-- Base station glow -->
    <filter id="baseGlow" x="-100%" y="-100%" width="300%" height="300%">
      <feGaussianBlur in="SourceGraphic" stdDeviation="4" result="blur"/>
      <feMerge>
        <feMergeNode in="blur"/>
        <feMergeNode in="SourceGraphic"/>
      </feMerge>
    </filter>
    <!-- Heatmap gradient -->
    <linearGradient id="heatRed" x1="0" y1="0" x2="1" y2="0">
      <stop offset="0%" stop-color="#FF3333"/>
      <stop offset="100%" stop-color="#FF6644"/>
    </linearGradient>
    <linearGradient id="heatOrange" x1="0" y1="0" x2="1" y2="0">
      <stop offset="0%" stop-color="#FF8C00"/>
      <stop offset="100%" stop-color="#FFB844"/>
    </linearGradient>
    <linearGradient id="heatGreen" x1="0" y1="0" x2="1" y2="0">
      <stop offset="0%" stop-color="#22CC66"/>
      <stop offset="100%" stop-color="#44DD88"/>
    </linearGradient>
    <!-- Top accent gradient -->
    <linearGradient id="accentGrad" x1="0" y1="0" x2="1" y2="0">
      <stop offset="0%" stop-color="#00D4FF" stop-opacity="0"/>
      <stop offset="30%" stop-color="#00D4FF" stop-opacity="1"/>
      <stop offset="70%" stop-color="#00D4FF" stop-opacity="1"/>
      <stop offset="100%" stop-color="#00D4FF" stop-opacity="0"/>
    </linearGradient>
  </defs>

  <!-- ========== BACKGROUND ========== -->
  <rect width="1200" height="400" fill="url(#bgGrad)"/>

  <!-- ========== BACKGROUND GRID (20x20, very faint) ========== -->
  <g opacity="0.06">
    <!-- Vertical lines -->
    <line x1="60" y1="0" x2="60" y2="400" stroke="#00D4FF" stroke-width="0.5"/>
    <line x1="120" y1="0" x2="120" y2="400" stroke="#00D4FF" stroke-width="0.5"/>
    <line x1="180" y1="0" x2="180" y2="400" stroke="#00D4FF" stroke-width="0.5"/>
    <line x1="240" y1="0" x2="240" y2="400" stroke="#00D4FF" stroke-width="0.5"/>
    <line x1="300" y1="0" x2="300" y2="400" stroke="#00D4FF" stroke-width="0.5"/>
    <line x1="360" y1="0" x2="360" y2="400" stroke="#00D4FF" stroke-width="0.5"/>
    <line x1="420" y1="0" x2="420" y2="400" stroke="#00D4FF" stroke-width="0.5"/>
    <line x1="480" y1="0" x2="480" y2="400" stroke="#00D4FF" stroke-width="0.5"/>
    <line x1="540" y1="0" x2="540" y2="400" stroke="#00D4FF" stroke-width="0.5"/>
    <line x1="600" y1="0" x2="600" y2="400" stroke="#00D4FF" stroke-width="0.5"/>
    <line x1="660" y1="0" x2="660" y2="400" stroke="#00D4FF" stroke-width="0.5"/>
    <line x1="720" y1="0" x2="720" y2="400" stroke="#00D4FF" stroke-width="0.5"/>
    <line x1="780" y1="0" x2="780" y2="400" stroke="#00D4FF" stroke-width="0.5"/>
    <line x1="840" y1="0" x2="840" y2="400" stroke="#00D4FF" stroke-width="0.5"/>
    <line x1="900" y1="0" x2="900" y2="400" stroke="#00D4FF" stroke-width="0.5"/>
    <line x1="960" y1="0" x2="960" y2="400" stroke="#00D4FF" stroke-width="0.5"/>
    <line x1="1020" y1="0" x2="1020" y2="400" stroke="#00D4FF" stroke-width="0.5"/>
    <line x1="1080" y1="0" x2="1080" y2="400" stroke="#00D4FF" stroke-width="0.5"/>
    <line x1="1140" y1="0" x2="1140" y2="400" stroke="#00D4FF" stroke-width="0.5"/>
    <!-- Horizontal lines -->
    <line x1="0" y1="20" x2="1200" y2="20" stroke="#00D4FF" stroke-width="0.5"/>
    <line x1="0" y1="40" x2="1200" y2="40" stroke="#00D4FF" stroke-width="0.5"/>
    <line x1="0" y1="60" x2="1200" y2="60" stroke="#00D4FF" stroke-width="0.5"/>
    <line x1="0" y1="80" x2="1200" y2="80" stroke="#00D4FF" stroke-width="0.5"/>
    <line x1="0" y1="100" x2="1200" y2="100" stroke="#00D4FF" stroke-width="0.5"/>
    <line x1="0" y1="120" x2="1200" y2="120" stroke="#00D4FF" stroke-width="0.5"/>
    <line x1="0" y1="140" x2="1200" y2="140" stroke="#00D4FF" stroke-width="0.5"/>
    <line x1="0" y1="160" x2="1200" y2="160" stroke="#00D4FF" stroke-width="0.5"/>
    <line x1="0" y1="180" x2="1200" y2="180" stroke="#00D4FF" stroke-width="0.5"/>
    <line x1="0" y1="200" x2="1200" y2="200" stroke="#00D4FF" stroke-width="0.5"/>
    <line x1="0" y1="220" x2="1200" y2="220" stroke="#00D4FF" stroke-width="0.5"/>
    <line x1="0" y1="240" x2="1200" y2="240" stroke="#00D4FF" stroke-width="0.5"/>
    <line x1="0" y1="260" x2="1200" y2="260" stroke="#00D4FF" stroke-width="0.5"/>
    <line x1="0" y1="280" x2="1200" y2="280" stroke="#00D4FF" stroke-width="0.5"/>
    <line x1="0" y1="300" x2="1200" y2="300" stroke="#00D4FF" stroke-width="0.5"/>
    <line x1="0" y1="320" x2="1200" y2="320" stroke="#00D4FF" stroke-width="0.5"/>
    <line x1="0" y1="340" x2="1200" y2="340" stroke="#00D4FF" stroke-width="0.5"/>
    <line x1="0" y1="360" x2="1200" y2="360" stroke="#00D4FF" stroke-width="0.5"/>
    <line x1="0" y1="380" x2="1200" y2="380" stroke="#00D4FF" stroke-width="0.5"/>
  </g>

  <!-- ========== TOP ACCENT LINE ========== -->
  <rect x="0" y="0" width="1200" height="2" fill="url(#accentGrad)"/>
  <!-- BOTTOM ACCENT LINE -->
  <rect x="0" y="398" width="1200" height="2" fill="url(#accentGrad)"/>

  <!-- ========== CORNER BRACKET DECORATIONS (HUD) ========== -->
  <!-- Top-left -->
  <g stroke="#00D4FF" stroke-width="2" fill="none" opacity="0.8">
    <line x1="20" y1="15" x2="20" y2="45"/>
    <line x1="20" y1="15" x2="50" y2="15"/>
  </g>
  <!-- Top-right -->
  <g stroke="#00D4FF" stroke-width="2" fill="none" opacity="0.8">
    <line x1="1180" y1="15" x2="1180" y2="45"/>
    <line x1="1180" y1="15" x2="1150" y2="15"/>
  </g>
  <!-- Bottom-left -->
  <g stroke="#00D4FF" stroke-width="2" fill="none" opacity="0.8">
    <line x1="20" y1="385" x2="20" y2="355"/>
    <line x1="20" y1="385" x2="50" y2="385"/>
  </g>
  <!-- Bottom-right -->
  <g stroke="#00D4FF" stroke-width="2" fill="none" opacity="0.8">
    <line x1="1180" y1="385" x2="1180" y2="355"/>
    <line x1="1180" y1="385" x2="1150" y2="385"/>
  </g>

  <!-- Inner corner brackets (secondary layer) -->
  <!-- Top-left inner -->
  <g stroke="#00D4FF" stroke-width="1" fill="none" opacity="0.35">
    <line x1="30" y1="25" x2="30" y2="48"/>
    <line x1="30" y1="25" x2="53" y2="25"/>
  </g>
  <!-- Top-right inner -->
  <g stroke="#00D4FF" stroke-width="1" fill="none" opacity="0.35">
    <line x1="1170" y1="25" x2="1170" y2="48"/>
    <line x1="1170" y1="25" x2="1147" y2="25"/>
  </g>
  <!-- Bottom-left inner -->
  <g stroke="#00D4FF" stroke-width="1" fill="none" opacity="0.35">
    <line x1="30" y1="375" x2="30" y2="352"/>
    <line x1="30" y1="375" x2="53" y2="375"/>
  </g>
  <!-- Bottom-right inner -->
  <g stroke="#00D4FF" stroke-width="1" fill="none" opacity="0.35">
    <line x1="1170" y1="375" x2="1170" y2="352"/>
    <line x1="1170" y1="375" x2="1147" y2="375"/>
  </g>

  <!-- ========== PROBABILITY HEATMAP CELLS (right side) ========== -->
  <g opacity="0.2">
    <!-- High probability (red) -->
    <rect x="880" y="180" width="20" height="20" fill="#FF3333" rx="2"/>
    <rect x="900" y="180" width="20" height="20" fill="#FF5533" rx="2"/>
    <rect x="880" y="200" width="20" height="20" fill="#FF4422" rx="2"/>
    <rect x="900" y="200" width="20" height="20" fill="#FF3333" rx="2"/>
    <rect x="920" y="180" width="20" height="20" fill="#FF6644" rx="2"/>
    <!-- Medium probability (orange) -->
    <rect x="860" y="180" width="20" height="20" fill="#FF8C00" rx="2"/>
    <rect x="920" y="200" width="20" height="20" fill="#FF8C00" rx="2"/>
    <rect x="940" y="180" width="20" height="20" fill="#FFB844" rx="2"/>
    <rect x="880" y="220" width="20" height="20" fill="#FFB844" rx="2"/>
    <rect x="860" y="200" width="20" height="20" fill="#FFAA33" rx="2"/>
    <!-- Low probability (green) -->
    <rect x="840" y="180" width="20" height="20" fill="#22CC66" rx="2"/>
    <rect x="840" y="200" width="20" height="20" fill="#33BB55" rx="2"/>
    <rect x="860" y="220" width="20" height="20" fill="#22CC66" rx="2"/>
    <rect x="900" y="220" width="20" height="20" fill="#44DD88" rx="2"/>
    <rect x="940" y="200" width="20" height="20" fill="#33BB55" rx="2"/>
    <rect x="920" y="220" width="20" height="20" fill="#22CC66" rx="2"/>
    <rect x="940" y="220" width="20" height="20" fill="#44DD88" rx="2"/>
    <rect x="840" y="220" width="20" height="20" fill="#44DD88" rx="2"/>
  </g>

  <!-- Heatmap label -->
  <text x="890" y="256" text-anchor="middle" font-family="'Segoe UI','Helvetica Neue',Arial,sans-serif" font-size="8" fill="#00D4FF" opacity="0.4" letter-spacing="2">PROBABILITY MAP</text>

  <!-- ========== BASE STATION (bottom-left of drone pattern area) ========== -->
  <g filter="url(#baseGlow)">
    <circle cx="820" cy="310" r="6" fill="#22CC66" opacity="0.9"/>
    <circle cx="820" cy="310" r="10" fill="none" stroke="#22CC66" stroke-width="1" opacity="0.4"/>
    <circle cx="820" cy="310" r="15" fill="none" stroke="#22CC66" stroke-width="0.5" opacity="0.2"/>
  </g>
  <!-- Base station label -->
  <text x="820" y="335" text-anchor="middle" font-family="'Segoe UI','Helvetica Neue',Arial,sans-serif" font-size="8" fill="#22CC66" opacity="0.6" letter-spacing="1">BASE</text>
  <!-- Antenna lines -->
  <line x1="820" y1="304" x2="820" y2="294" stroke="#22CC66" stroke-width="1" opacity="0.6"/>
  <line x1="816" y1="296" x2="824" y2="296" stroke="#22CC66" stroke-width="1" opacity="0.6"/>

  <!-- ========== DOTTED FLIGHT PATHS (search pattern) ========== -->
  <g stroke="#00D4FF" stroke-width="1" fill="none" opacity="0.25" stroke-dasharray="4,6">
    <!-- Base to drone 1 -->
    <path d="M820,310 Q840,280 870,220"/>
    <!-- Base to drone 2 -->
    <path d="M820,310 Q860,290 920,250"/>
    <!-- Drone 1 to Drone 3 -->
    <path d="M870,220 Q910,170 960,160"/>
    <!-- Drone 2 to Drone 4 -->
    <path d="M920,250 Q960,220 1000,200"/>
    <!-- Drone 3 to Drone 5 -->
    <path d="M960,160 Q1010,140 1050,130"/>
    <!-- Cross connections -->
    <path d="M870,220 Q900,240 920,250"/>
    <path d="M960,160 Q980,180 1000,200"/>
    <!-- Search pattern sweep lines -->
    <path d="M860,180 L940,180" stroke-dasharray="2,8"/>
    <path d="M860,200 L940,200" stroke-dasharray="2,8"/>
    <path d="M860,220 L940,220" stroke-dasharray="2,8"/>
  </g>

  <!-- Flight path solid segments (active paths) -->
  <g stroke="#00D4FF" stroke-width="0.8" fill="none" opacity="0.15">
    <path d="M820,310 C850,270 860,240 870,220"/>
    <path d="M870,220 C900,190 930,170 960,160"/>
    <path d="M960,160 C990,150 1020,140 1050,130"/>
  </g>

  <!-- ========== DRONE SILHOUETTES (diamond/octahedron shapes) ========== -->
  <!-- Drone 1 -->
  <g filter="url(#softGlow)">
    <polygon points="870,210 880,220 870,230 860,220" fill="#00D4FF" opacity="0.8"/>
    <line x1="858" y1="218" x2="852" y2="215" stroke="#00D4FF" stroke-width="0.8" opacity="0.5"/>
    <line x1="858" y1="222" x2="852" y2="225" stroke="#00D4FF" stroke-width="0.8" opacity="0.5"/>
    <line x1="882" y1="218" x2="888" y2="215" stroke="#00D4FF" stroke-width="0.8" opacity="0.5"/>
    <line x1="882" y1="222" x2="888" y2="225" stroke="#00D4FF" stroke-width="0.8" opacity="0.5"/>
  </g>
  <!-- Drone 2 -->
  <g filter="url(#softGlow)">
    <polygon points="920,240 930,250 920,260 910,250" fill="#00D4FF" opacity="0.7"/>
    <line x1="908" y1="248" x2="902" y2="245" stroke="#00D4FF" stroke-width="0.8" opacity="0.5"/>
    <line x1="908" y1="252" x2="902" y2="255" stroke="#00D4FF" stroke-width="0.8" opacity="0.5"/>
    <line x1="932" y1="248" x2="938" y2="245" stroke="#00D4FF" stroke-width="0.8" opacity="0.5"/>
    <line x1="932" y1="252" x2="938" y2="255" stroke="#00D4FF" stroke-width="0.8" opacity="0.5"/>
  </g>
  <!-- Drone 3 -->
  <g filter="url(#softGlow)">
    <polygon points="960,150 970,160 960,170 950,160" fill="#00D4FF" opacity="0.85"/>
    <line x1="948" y1="158" x2="942" y2="155" stroke="#00D4FF" stroke-width="0.8" opacity="0.5"/>
    <line x1="948" y1="162" x2="942" y2="165" stroke="#00D4FF" stroke-width="0.8" opacity="0.5"/>
    <line x1="972" y1="158" x2="978" y2="155" stroke="#00D4FF" stroke-width="0.8" opacity="0.5"/>
    <line x1="972" y1="162" x2="978" y2="165" stroke="#00D4FF" stroke-width="0.8" opacity="0.5"/>
  </g>
  <!-- Drone 4 -->
  <g filter="url(#softGlow)">
    <polygon points="1000,190 1010,200 1000,210 990,200" fill="#00D4FF" opacity="0.65"/>
    <line x1="988" y1="198" x2="982" y2="195" stroke="#00D4FF" stroke-width="0.8" opacity="0.5"/>
    <line x1="988" y1="202" x2="982" y2="205" stroke="#00D4FF" stroke-width="0.8" opacity="0.5"/>
    <line x1="1012" y1="198" x2="1018" y2="195" stroke="#00D4FF" stroke-width="0.8" opacity="0.5"/>
    <line x1="1012" y1="202" x2="1018" y2="205" stroke="#00D4FF" stroke-width="0.8" opacity="0.5"/>
  </g>
  <!-- Drone 5 (lead drone, slightly larger) -->
  <g filter="url(#softGlow)">
    <polygon points="1050,118 1062,130 1050,142 1038,130" fill="#00D4FF" opacity="0.9"/>
    <line x1="1036" y1="127" x2="1028" y2="123" stroke="#00D4FF" stroke-width="1" opacity="0.5"/>
    <line x1="1036" y1="133" x2="1028" y2="137" stroke="#00D4FF" stroke-width="1" opacity="0.5"/>
    <line x1="1064" y1="127" x2="1072" y2="123" stroke="#00D4FF" stroke-width="1" opacity="0.5"/>
    <line x1="1064" y1="133" x2="1072" y2="137" stroke="#00D4FF" stroke-width="1" opacity="0.5"/>
  </g>

  <!-- Drone ID labels -->
  <text x="870" y="244" text-anchor="middle" font-family="'Segoe UI','Helvetica Neue',Arial,sans-serif" font-size="7" fill="#00D4FF" opacity="0.5">D-01</text>
  <text x="920" y="274" text-anchor="middle" font-family="'Segoe UI','Helvetica Neue',Arial,sans-serif" font-size="7" fill="#00D4FF" opacity="0.5">D-02</text>
  <text x="960" y="182" text-anchor="middle" font-family="'Segoe UI','Helvetica Neue',Arial,sans-serif" font-size="7" fill="#00D4FF" opacity="0.5">D-03</text>
  <text x="1000" y="224" text-anchor="middle" font-family="'Segoe UI','Helvetica Neue',Arial,sans-serif" font-size="7" fill="#00D4FF" opacity="0.5">D-04</text>
  <text x="1050" y="156" text-anchor="middle" font-family="'Segoe UI','Helvetica Neue',Arial,sans-serif" font-size="7" fill="#00D4FF" opacity="0.5">D-05</text>

  <!-- ========== DECORATIVE HUD ELEMENTS ========== -->
  <!-- Top-left status readouts -->
  <text x="65" y="32" font-family="'Segoe UI','Helvetica Neue',Arial,sans-serif" font-size="8" fill="#00D4FF" opacity="0.4" letter-spacing="2">SYS:ONLINE</text>
  <text x="65" y="44" font-family="'Segoe UI','Helvetica Neue',Arial,sans-serif" font-size="8" fill="#22CC66" opacity="0.4" letter-spacing="2">SWARM:ACTIVE</text>

  <!-- Top-right status -->
  <text x="1140" y="32" text-anchor="end" font-family="'Segoe UI','Helvetica Neue',Arial,sans-serif" font-size="8" fill="#00D4FF" opacity="0.4" letter-spacing="2">UNITS:5/5</text>
  <text x="1140" y="44" text-anchor="end" font-family="'Segoe UI','Helvetica Neue',Arial,sans-serif" font-size="8" fill="#22CC66" opacity="0.4" letter-spacing="2">COVERAGE:87%</text>

  <!-- Bottom-left coordinates -->
  <text x="65" y="370" font-family="'Segoe UI','Helvetica Neue',Arial,sans-serif" font-size="8" fill="#00D4FF" opacity="0.3" letter-spacing="2">LAT:3.1390 LON:101.6869</text>

  <!-- Bottom-right timestamp -->
  <text x="1140" y="370" text-anchor="end" font-family="'Segoe UI','Helvetica Neue',Arial,sans-serif" font-size="8" fill="#00D4FF" opacity="0.3" letter-spacing="2">MISSION ELAPSED: 00:42:17</text>

  <!-- Horizontal scan lines (decorative) -->
  <line x1="65" y1="52" x2="200" y2="52" stroke="#00D4FF" stroke-width="0.5" opacity="0.15"/>
  <line x1="1000" y1="52" x2="1140" y2="52" stroke="#00D4FF" stroke-width="0.5" opacity="0.15"/>
  <line x1="65" y1="358" x2="250" y2="358" stroke="#00D4FF" stroke-width="0.5" opacity="0.15"/>
  <line x1="950" y1="358" x2="1140" y2="358" stroke="#00D4FF" stroke-width="0.5" opacity="0.15"/>

  <!-- ========== MAIN TITLE: SWARMMIND ========== -->
  <text x="400" y="175" text-anchor="middle" font-family="Georgia,serif" font-size="72" font-weight="bold" fill="white" filter="url(#cyanGlow)" letter-spacing="12">SWARMMIND</text>

  <!-- ========== SUBTITLE ========== -->
  <text x="400" y="210" text-anchor="middle" font-family="'Segoe UI','Helvetica Neue',Arial,sans-serif" font-size="14" fill="#00D4FF" letter-spacing="6" opacity="0.9">AUTONOMOUS DRONE SWARM INTELLIGENCE</text>

  <!-- Divider line under subtitle -->
  <line x1="200" y1="225" x2="600" y2="225" stroke="#00D4FF" stroke-width="0.5" opacity="0.3"/>

  <!-- ========== TAGLINE ========== -->
  <text x="400" y="255" text-anchor="middle" font-family="'Segoe UI','Helvetica Neue',Arial,sans-serif" font-size="16" fill="#8899BB" opacity="0.8" letter-spacing="1">Where AI Coordinates Rescue Operations</text>

  <!-- ========== DECORATIVE ELEMENTS AROUND TITLE ========== -->
  <!-- Left accent bar -->
  <rect x="120" y="148" width="4" height="40" fill="#00D4FF" opacity="0.4" rx="2"/>
  <rect x="128" y="155" width="2" height="26" fill="#00D4FF" opacity="0.2" rx="1"/>

  <!-- Right accent bar (mirrored, left side of drone area) -->
  <rect x="676" y="148" width="4" height="40" fill="#00D4FF" opacity="0.4" rx="2"/>
  <rect x="670" y="155" width="2" height="26" fill="#00D4FF" opacity="0.2" rx="1"/>

  <!-- Small diamond accents flanking the title -->
  <polygon points="145,168 150,163 155,168 150,173" fill="#00D4FF" opacity="0.3"/>
  <polygon points="655,168 660,163 665,168 660,173" fill="#00D4FF" opacity="0.3"/>

  <!-- ========== FEATURE BADGES (bottom area) ========== -->
  <!-- Badge 1 -->
  <g opacity="0.5">
    <rect x="160" y="290" width="120" height="28" rx="4" fill="none" stroke="#00D4FF" stroke-width="0.8" opacity="0.4"/>
    <circle cx="178" cy="304" r="4" fill="#00D4FF" opacity="0.6"/>
    <text x="190" y="308" font-family="'Segoe UI','Helvetica Neue',Arial,sans-serif" font-size="9" fill="#8899BB" letter-spacing="1">MULTI-AGENT</text>
  </g>
  <!-- Badge 2 -->
  <g opacity="0.5">
    <rect x="300" y="290" width="120" height="28" rx="4" fill="none" stroke="#00D4FF" stroke-width="0.8" opacity="0.4"/>
    <circle cx="318" cy="304" r="4" fill="#22CC66" opacity="0.6"/>
    <text x="330" y="308" font-family="'Segoe UI','Helvetica Neue',Arial,sans-serif" font-size="9" fill="#8899BB" letter-spacing="1">REAL-TIME AI</text>
  </g>
  <!-- Badge 3 -->
  <g opacity="0.5">
    <rect x="440" y="290" width="120" height="28" rx="4" fill="none" stroke="#00D4FF" stroke-width="0.8" opacity="0.4"/>
    <circle cx="458" cy="304" r="4" fill="#FF8C00" opacity="0.6"/>
    <text x="470" y="308" font-family="'Segoe UI','Helvetica Neue',Arial,sans-serif" font-size="9" fill="#8899BB" letter-spacing="1">SAR RESCUE</text>
  </g>

  <!-- ========== VERTICAL SEPARATOR LINE ========== -->
  <line x1="760" y1="80" x2="760" y2="350" stroke="#00D4FF" stroke-width="0.5" opacity="0.12" stroke-dasharray="2,4"/>

  <!-- Right panel label -->
  <text x="940" y="100" text-anchor="middle" font-family="'Segoe UI','Helvetica Neue',Arial,sans-serif" font-size="9" fill="#00D4FF" opacity="0.35" letter-spacing="3">TACTICAL OVERVIEW</text>
  <line x1="850" y1="108" x2="1030" y2="108" stroke="#00D4FF" stroke-width="0.5" opacity="0.15"/>

  <!-- Search grid box outline -->
  <rect x="830" y="170" width="140" height="60" fill="none" stroke="#00D4FF" stroke-width="0.5" opacity="0.12" rx="2"/>

  <!-- Range circles from base station -->
  <circle cx="820" cy="310" r="50" fill="none" stroke="#00D4FF" stroke-width="0.3" opacity="0.08" stroke-dasharray="3,5"/>
  <circle cx="820" cy="310" r="100" fill="none" stroke="#00D4FF" stroke-width="0.3" opacity="0.06" stroke-dasharray="3,5"/>
  <circle cx="820" cy="310" r="160" fill="none" stroke="#00D4FF" stroke-width="0.3" opacity="0.04" stroke-dasharray="3,5"/>
</svg>